<svg xmlns="http://www.w3.org/2000/svg" width="137" height="137">
    <path fill-rule="evenodd" fill="#E3D5B8" d="m84.63 68.489 11.042-11.042c10.238 4.008 22.311 1.907 30.582-6.364l4.035-4.036c8.918-8.918 8.918-23.376 0-32.288l-4.035 4.035-16.141 16.142a5.696 5.696 0 0 1-8.071 0 5.696 5.696 0 0 1 0-8.071l16.141-16.141 4.036-4.036c-8.913-8.917-23.37-8.917-32.288 0l-4.036 4.036c-8.271 8.271-10.372 20.344-6.364 30.582L64.454 56.383 10.891 2.82 0 0l2.82 10.891 53.563 53.562-51.2 51.2c-4.458 4.459-4.458 11.682 0 16.141 4.46 4.459 11.683 4.459 16.142 0L68.489 84.63l49.003 49.004c4.46 4.459 11.683 4.459 16.142 0s4.459-11.683 0-16.142L84.63 68.489zm5.301-53.73 4.04-4.035c5.262-5.267 13.077-6.321 19.436-3.294l-15.4 15.399c-4.459 4.459-4.459 11.688 0 16.142 4.453 4.459 11.683 4.459 16.141 0l15.4-15.401c3.026 6.361 1.973 14.174-3.294 19.442l-4.035 4.035c-8.913 8.913-23.37 8.913-32.288 0-8.913-8.918-8.913-23.376 0-32.288zM82.267 46.64a29.241 29.241 0 0 0 3.628 4.443 29.241 29.241 0 0 0 4.443 3.628L76.56 68.489l-8.071-8.071L82.267 46.64zm-64.978 81.118a5.704 5.704 0 0 1-8.07 0 5.702 5.702 0 0 1 0-8.069l8.07-8.071 8.071 8.071-8.071 8.069zm4.036-20.175 39.093-39.094 8.071 8.071-39.094 39.093-8.07-8.07zm51.773-26.414 8.071-8.07 36.323 36.322-8.07 8.071-36.324-36.323zm56.5 48.43a5.705 5.705 0 0 1-8.07 0l-8.071-8.072 8.071-8.07 8.07 8.07a5.706 5.706 0 0 1 0 8.072z"/>
</svg>
