<svg xmlns="http://www.w3.org/2000/svg" width="163" height="143">
    <path fill-rule="evenodd" fill="#E3D5B8" d="m149.85 75.228-67.902 66.797-67.897-66.797a43.568 43.568 0 0 1 0-62.339c17.496-17.211 45.87-17.211 63.372 0 1.684 1.663 3.164 3.45 4.525 5.289 1.366-1.839 2.84-3.626 4.53-5.289 17.503-17.211 45.869-17.211 63.372 0a43.58 43.58 0 0 1 0 62.339zm-9.055-53.432c-12.496-12.293-32.766-12.293-45.269 0a452140.81 452140.81 0 0 1-13.578 13.358S71.36 24.733 68.368 21.796c-12.496-12.293-32.759-12.293-45.268 0a31.134 31.134 0 0 0 0 44.532c3.229 3.169 58.848 57.888 58.848 57.888s55.624-54.719 58.847-57.888a31.136 31.136 0 0 0 0-44.532zm-15.507 34.163c2.45-2.405 3.962-5.732 3.962-9.408 0-7.349-6.056-13.306-13.527-13.306v-6.654c11.203 0 20.29 8.94 20.29 19.96 0 5.509-2.272 10.498-5.944 14.111l-4.781-4.703z"/>
</svg>
